P1
80 40
1111111111111111111111111111111111111111111111111111111111111111111111
1111111111111111111111111111111111111111111111111111111111111111111111
1111111111111111111111111111111111111111111111111111111111111111111111
1111111111111111111111111111111111111111111111111111111111111111111111
1111111111111111111111111111111111111111111111111111111111111111111111
1111111111111111111111111111111111111111111111111111111111111111111111
1111111111111111111111111111111111111111111111111111111111111111111111
1111111111111000000000000000000001111111111111111111111111111111111111
1111111111111111111100000000000000000000000000011111111111111111111111
1111111111111111111111111111100000000000000000000000000000001111111111
1111111111111111111111111111111111111100000000000000000000000000000000
0001111111111111111111111111111111111111111111100000000000000000000000
0000000000000001111111111111111111111111111111111111111110000000000000
0000000000000000000000000001111111111111111111111111111111111111111000
0000000000000000000000000000000000000011111111111111111111111111111111
1111110000000000000000000000000000000000000000000111111111111111111111
1111111111111111000000000000000000000000000000000000000000001111111111
1111111111111111111111111100000000000000000000000000000000000000000000
0111111111111111111111111111111111110000000000000000000000000000000000
0000000000001111111111111111111111111111111111100000000000000000000000
0000000000000000000000011111111111111111111111111111111110000000000000
0000000000000000000000000000000001111111111111111111111111111111111000
0000000000000000000000000000000000000000000011111111111111111111111111
1111111100000000000000000000000000000000000000000000001111111111111111
1111111111111111111000000000000000000000000000000000000000000000011111
1111111111111111111111111111110000000000000000000000000000000000000000
0000011111111111111111111111111111111111100000000000000000000000000000
0000000000000001111111111111111111111111111111111111110000000000000000
0000000000000000000000000111111111111111111111111111111111111111111111
1111111000000000000000000000000000011111111111111111111111111111111111
1111111111111111111111111000000000000000000011111111111111111111111111
1111111111111111111111111111111111111111100000000000011111111111111111
1111111111111111111111111111111111111111111111111111111111001111111111
1111111111111111111111111111111111111111111111111111111111111111111111
1111111111111111111111111111111111111111111111111111111111111111111111
1111111111111111111111111111111111111111111111111111111111111111111111
1111111111111111111111111111111111111111111111111111111111111111111111
1111111111111111111111111111111111111111111111111111111111111111111111
1111111111111111111111111111111111111111111111111111111111111111111111
1111111111111111111111111111111111111111111111111111111111111111111111
1111111111111111111111111111111111111111111111111111111111111111111111
1111111111111111111111111111111111111111111111111111111111111111111111
1111111111111111111111111111111111111111111111111111111111111111111111
1111111111111111111111111111111111111111111111111111111111111111111111
1111111111111111111111111111111111111111111111111111111111111111111111
11111111111111111111111111111111111111111111111111