P1
20 20
0000000001111111111111111111111111111111111111111111111111111111111111
1111111111111111111111111111111111111111111111111111111111111111111111
1111111111111111111111111111111111111111111111110001111111111111111000
0011111111111111100000111111111111111000001111111111111110000011111111
1111111100011111111111111111111111111111111111111111111111111111111111
11111111111111111111111111111111111111111111111111